# xmcd
#
# Track frame offsets:
#	150
#	10765
#	15675
#	39033
#	61515
#	84902
#	114413
#	143501
#	173825
#	207864
#	233961
#	242932
#	254537
#	277424
#
# Disc length: 3927 seconds
#
# Revision: 1
# Processed by: cddbd v1.5.1PL2 Copyright (c) Steve Scherf et al.
# Submitted via: EasyCDDAExtractor 9.0.0.1
#
DISCID=b10f550e
DTITLE=Black Sabbath - Hammersmith Odeon London 08-09-90 Disc 1
DYEAR=1990
DGENRE=Hard Rock
TTITLE0=Ave Satani
TTITLE1=The Gates Of Hell
TTITLE2=Neon Knights
TTITLE3=Iron Man
TTITLE4=Children Of The Grave
TTITLE5=Anno Mundi
TTITLE6=Headless Cross
TTITLE7=When Death Calls
TTITLE8=War Pigs
TTITLE9=The Shining
TTITLE10=Bass Solo
TTITLE11=Heart Like A Wheel
TTITLE12=Guitar Solo
TTITLE13=The Law Maker
EXTD=
EXTT0=
EXTT1=
EXTT2=
EXTT3=
EXTT4=
EXTT5=
EXTT6=
EXTT7=
EXTT8=
EXTT9=
EXTT10=
EXTT11=
EXTT12=
EXTT13=
PLAYORDER=
